<svg viewBox="0 0 291.27 291.27" xmlns="http://www.w3.org/2000/svg"><path d="m327 309.45c7.54 7.53 8 19.35 1.12 26.27s-18.72 6.4-26.26-1.14l-77.53-85.13a49.28 49.28 0 0 1 -17.93-4l28.31-28.31 18.45 18.45zm-163.15-93.45 34.86-34.85-35.33-35.33c-28-28-55.94-55.95-72.79-72.79a10.12 10.12 0 0 0 -8.67-3c-2.34.3-5.78 2.54-6.39 8.31-2.46 23.68 14.9 64.77 76.6 126.48q6.1 6.04 11.72 11.18zm64.76-97.12 4.49-4.49.07-.07zm130.39-7.88c-3.92-3.92-9.37-4.88-12.11-2.13l-55.21 55.23c-2.75 2.74-7.87 2.11-11.42-1.44s-4.17-8.65-1.42-11.4l55.24-55.26c2.75-2.74 1.78-8.19-2.13-12.1s-9.36-4.88-12.11-2.14l-55.28 55.24c-2.74 2.75-7.87 2.11-11.41-1.43s-4.17-8.66-1.42-11.4l55.27-55.17c2.74-2.75 1.78-8.19-2.13-12.1s-9.36-4.88-12.11-2.13l-59.66 59.61c-19.44 19.5-13.21 33.07-2.12 45.36l-153.53 153.54c-7.54 7.53-8 19.35-1.13 26.26s18.73 6.41 26.27-1.12l153.53-153.54c12.31 11.11 25.9 17.35 45.43-2.19l59.6-59.6c2.75-2.75 1.79-8.19-2.15-12.09z" fill="#FFFFFF" transform="translate(-71.45 -53.15)"/></svg>