<svg viewBox="0 0 156.23 279.7" xmlns="http://www.w3.org/2000/svg"><g transform="translate(-120.31 -41.31)"><path d="m199.11 321h-1.37a77.52 77.52 0 0 1 -77.43-77.43v-124.83a77.52 77.52 0 0 1 77.43-77.43h1.37a77.52 77.52 0 0 1 77.43 77.43v124.84a77.52 77.52 0 0 1 -77.43 77.42zm-1.37-260.5a58.29 58.29 0 0 0 -58.23 58.23v124.85a58.29 58.29 0 0 0 58.23 58.23h1.37a58.29 58.29 0 0 0 58.23-58.23v-124.84a58.29 58.29 0 0 0 -58.23-58.23z" fill="#FFFFFF"/><path d="m266.94 181.16v-62.42a67.83 67.83 0 0 0 -67.83-67.83h-1.37a67.83 67.83 0 0 0 -67.83 67.83v62.42z" fill="#FFFFFF"/><path d="m154.72 133.14a9.6 9.6 0 0 1 -9.6-9.6 57.49 57.49 0 0 1 57.42-57.42 9.6 9.6 0 0 1 0 19.2 38.27 38.27 0 0 0 -38.22 38.22 9.6 9.6 0 0 1 -9.6 9.6z" fill="#5c6853"/></g></svg>