<svg viewBox="0 0 344.32 196.42" xmlns="http://www.w3.org/2000/svg"><g fill="#FFFFFF"><path d="m0 63.04h14.7v133.37h-14.7z"/><path d="m329.62 63.06h14.7v133.36h-14.7z"/><g transform="translate(-48.65 -96.55)"><path d="m372.68 258.6v12.68h-303.75v-33.45h114.07a11.92 11.92 0 0 0 2.28 3.71c3.59 3.91 10 5.9 19.09 5.9 2.11 0 3.79-.12 4.5-.2a102.64 102.64 0 0 0 16.71-2.87c5.78-1.31 11.2-2.55 16.9-2.71h1.15c6.06 0 11.21 2.83 17.14 6.1a102.33 102.33 0 0 0 10.05 5.06c7.45 3 18.74 6.62 30.3 6.62a46.06 46.06 0 0 0 15.88-2.67 67.4 67.4 0 0 1 21-3.47 78 78 0 0 1 8.89.56 31.39 31.39 0 0 1 8 2.51c3.78 1.55 7.73 3.15 12.16 3.15a17 17 0 0 0 4.94-.72z"/><path d="m186.12 216.87a3 3 0 0 0 0 .6 26.58 26.58 0 0 1 -1 6 26 26 0 0 1 -1.64 4.23 18.72 18.72 0 0 0 -1.19 4.74v.36h-113.36v-15.9h4.5c-1.43-1.16-2.78-2.59-3.78-3.39-.24-.24-.48-.44-.72-.64v-18.09a3.43 3.43 0 0 0 .72-.36c2.95-2.11 5.26-4.18 8.73-5.78a36.41 36.41 0 0 1 10.32-2 13.42 13.42 0 0 1 2.39 5.14 15.11 15.11 0 0 0 .32 2.75 10.53 10.53 0 0 0 2.35 3.23c1.56 1.64 4.07 2.91 6.06 4a10.28 10.28 0 0 0 6.22 1.16c3.91-.24 7 1.23 10.72 1.75 1.8.24 3.47-.68 5.23-.52 1.31.16 2.55.44 3.86.56a20.53 20.53 0 0 0 4.51-1.48c.16-.07.28-.16.48-.24s.08 0 .15-.07a.17.17 0 0 0 .13 0c0-.05 0-.05 0-.05a1.56 1.56 0 0 1 -.47.09 13 13 0 0 1 -4.19-.32c-.56-.08-1.16-.16-1.71-.2s-1.12 0-1.68 0h-1.27a9.75 9.75 0 0 1 -1.08 0s-.08 0-.12 0h-.08c-.28 0-.56 0-.88 0a13.77 13.77 0 0 1 -1.83-.36 6.78 6.78 0 0 1 -.87-.28c-.56-.16-1.12-.36-1.68-.52a5.15 5.15 0 0 0 -.84-.24 9.08 9.08 0 0 0 -1.83-.2h-.59c-1.91 0-3.83-.08-5.74-.16a4 4 0 0 1 -1-.12 7.68 7.68 0 0 1 -2.51-1.07c-.51-.32-1-.68-1.51-1.08s-1-.8-1.48-1.15c-.28-.16-.56-.36-.84-.56a10.26 10.26 0 0 1 -2.39-2 1.65 1.65 0 0 1 -.35-1.67 5.09 5.09 0 0 0 .08-1.11 2.48 2.48 0 0 0 -.2-.88c-.12-.28-.28-.6-.44-.92s-.48-.84-.72-1.28a9 9 0 0 1 -.44-.95 2.54 2.54 0 0 1 -.2-.92 1.7 1.7 0 0 1 .52-1.43c.44-.52 1.12-.36 1.4-1 .15-.44-.2-1.24-.2-1.67.11-1.16.79-1.92 1.07-3a11.66 11.66 0 0 1 10.49-7.7 34.49 34.49 0 0 1 12.59 1.84c1.76.68 3.51 1.39 5.19 2.11.35.16.67.28 1 .44 1.4.63 3 2.07 4.58 2.71l2.76 1.35c-.56-3.27 3-6 3.62-8.69s.6-5.86 2.71-7.69c1.88-1.75 5.34-2.83 7.82-3.51a20.56 20.56 0 0 1 8.89-.48c3.94.8 8 1.32 12 2.16a4.33 4.33 0 0 0 -.16.75c-.56 5.22 3 10.61 5.78 14.95.64 1 1.24 1.88 1.64 2.63s.6 1.16.88 1.79a78 78 0 0 1 3.15 8.82c.75 2.43 1.55 4.86 2.47 7.21a47.65 47.65 0 0 1 3.66 17.86 1.29 1.29 0 0 0 0 .45z"/><path d="m372.68 200.36v49c-.76 1.4-1.64 2.64-2.31 4.07a11.89 11.89 0 0 1 -3.31.48c-6.34 0-12.56-4.82-19.58-5.62a71.33 71.33 0 0 0 -32.2 3.15c-13.28 4.9-29.38 1.39-42.34-3.87-10.84-4.54-18.89-12.24-30.81-11.52-11.52.36-22.36 4.9-33.56 5.58-3.51.32-21.61 1.24-20.65-8.73a11.22 11.22 0 0 1 .79-3.19 31.77 31.77 0 0 0 1.84-4.78 33.19 33.19 0 0 0 1.19-8v-.12c.24-6.82-1.43-13.88-4.06-20.57-2.07-5.3-3.39-11.16-5.74-16.35-.32-.67-.68-1.39-1-2.07-1.43-2.91-7.21-9.92-6.77-14.35a3.36 3.36 0 0 1 1.15-2.35 9.7 9.7 0 0 1 .8-.56.3.3 0 0 1 .16-.08c3.94-2.19 7.69 0 11.88 1.24 5.1 1.39 9.76 1.39 15.14 1.39 10.49 0 20.77.24 31.26-1.63 10.88-2 106 13.67 128.15 19.25 5.94 6.04 8.41 12.58 9.97 19.63z"/><path d="m131.19 202.79s0 0 0 .05z" opacity=".86"/><path d="m188.42 119.86a19.56 19.56 0 0 1 -10.06 2.7c-10.45.07-21 .41-31.37 2.1-6.18 1-12.24 1.9-18.49 1.58-2.77-.15-3-1.63-.84-3.12 11.6-7.92 25.64-12.07 36.72-20.71-10.86-.14-21.73.08-32.62.11-2.77 0-3-1.72-.84-3.12a19.64 19.64 0 0 1 10.08-2.7c12.41 0 24.8-.32 37.21 0 1.42 0 3.58.81 1.82 2.38-10.67 9.54-24.21 14.13-36.36 21.24 6.78-.51 13.59-2.13 20.34-2.65q11.77-.87 23.6-.93c2.77-.02 3.02 1.72.81 3.12z"/><path d="m137.67 138.81c-5.35 5.42-12.39 8.44-18.84 12.26 5.44.42 11 .13 16.41.1 1.84 0 2 1.11.54 2a13.22 13.22 0 0 1 -6.7 1.79c-6.84 0-13.64.32-20.46-.48-1.64-.2-.37-1.48.3-1.92 6.2-4.15 13.49-6.87 19-11.9-5.27-.93-10.7-.09-16 0-1.86 0-2-1.1-.54-2a13.41 13.41 0 0 1 6.69-1.79c6.46-.1 12.86-1.05 19.21.49.93.25 1.02.79.39 1.45z"/></g></g></svg>