<svg viewBox="0 0 375.94 245.83" xmlns="http://www.w3.org/2000/svg"><g fill="#FFFFFF"><circle cx="99.1" cy="22.66" r="22.66"/><g transform="translate(-38.25 -87.6)"><path d="m163.36 230.66a7.76 7.76 0 0 1 -7.3 6.48h-37.43a7.76 7.76 0 0 1 -7.29-6.48l-12.55-74.6c-1.44-8.51 1.92-15.89 7.59-15.89h61.93c5.68 0 9 7.38 7.6 15.89z"/><path d="m118.79 318.77a9.26 9.26 0 0 1 -9 9.26l-4.19.07a9.26 9.26 0 0 1 -9.3-8.93l-3.65-83.25c-.33-7.38 4.38-13.61 10.52-13.72l5.23-.1c6.13-.11 11.06 6 11 13.33z"/><path d="m156.93 318.77a9.26 9.26 0 0 0 9 9.26l4.18.07a9.26 9.26 0 0 0 9.31-8.93l3.65-83.25c.33-7.38-4.38-13.61-10.52-13.72l-5.23-.1c-6.14-.11-11.06 6-11 13.33z"/><path d="m100.77 141.87a7.13 7.13 0 0 1 10 .79l2.18 2.55a7.12 7.12 0 0 1 -.8 10l-29.93 33.4.3 46.38a7.12 7.12 0 0 1 -7.23 7l-3.29.01a7.12 7.12 0 0 1 -7-7.22l-.49-52.34z"/><path d="m174 141.87a7.13 7.13 0 0 0 -10 .79l-2.17 2.55a7.13 7.13 0 0 0 .79 10l29.94 33.4-.3 46.38a7.11 7.11 0 0 0 7.22 7h3.35a7.12 7.12 0 0 0 7-7.22l.48-52.34z"/></g><path d="m113.52 214.82-.11-14.01h-27.6l-.1 14.01z"/><path d="m43.36 285.41h46.43l-2-45h-44.43a5.1 5.1 0 0 0 -5.11 5.11v34.78a5.1 5.1 0 0 0 5.11 5.11z" transform="translate(-38.25 -87.6)"/><path d="m294.07 237.33h41c49.08 0 66.07-23.52 66.07-29.48 0-14.59-34.64-23.88-72.09-8.14-35.23 14.83-43.05 37.62-34.98 37.62z" transform="translate(-38.25 -87.6)"/><path d="m86.18 152.79-.34 45.02h27.55l-.35-45.02z"/><path d="m89.93 288.42h-46.57a5.1 5.1 0 0 0 -5.11 5.11v34.79a5.1 5.1 0 0 0 5.11 5.11h3.89v-25.9a5.11 5.11 0 0 1 5.11-5.11h38.18z" transform="translate(-38.25 -87.6)"/><path d="m398 288.42h-212.21l-.61 14h203.82a5.11 5.11 0 0 1 5.11 5.11v25.9h3.89a5.11 5.11 0 0 0 5.11-5.11v-34.79a5.11 5.11 0 0 0 -5.11-5.11z" transform="translate(-38.25 -87.6)"/><path d="m410 162.53a4.19 4.19 0 0 0 -4.2 4.19v162.51a4.2 4.2 0 0 0 8.39 0v-162.51a4.19 4.19 0 0 0 -4.19-4.19z" transform="translate(-38.25 -87.6)"/><path d="m398 240.4h-210.1l-2 45h212.1a5.11 5.11 0 0 0 5.11-5.11v-34.78a5.11 5.11 0 0 0 -5.11-5.11z" transform="translate(-38.25 -87.6)"/></g></svg>