<svg viewBox="0 0 365.53 257.18" xmlns="http://www.w3.org/2000/svg"><g fill="#FFFFFF"><g transform="translate(-46.29 -84.21)"><path d="m206.63 219.63c-19.8-7.29-69.23-7.29-89 0-9.2 3.39-26.94 26-16.8 27.13 33.7 3.62 86.36 2.91 122.63 0 10.07-.82-7.63-23.76-16.83-27.13z"/><path d="m67.9 249.63a30.59 30.59 0 0 1 26.4-15.19h1.22a51.88 51.88 0 0 1 5-7.2 62.1 62.1 0 0 1 8-8.08h-14.22a45.68 45.68 0 0 0 -30.57 11.68v-19.19a30.6 30.6 0 0 1 30.57-30.56h143.8a30.6 30.6 0 0 1 30.56 30.56v19.19a45.67 45.67 0 0 0 -30.56-11.68h-22.56a58 58 0 0 1 13 15.28h9.52a30.59 30.59 0 0 1 26.4 15.19h11.17a15.56 15.56 0 0 1 8.27 2.39v-40.37a45.84 45.84 0 0 0 -45.84-45.84h-143.76a45.84 45.84 0 0 0 -45.85 45.84v40.35a15.62 15.62 0 0 1 8.28-2.39z"/><path d="m48.45 326.25v15.06h15.28v-12.67h-7a15.53 15.53 0 0 1 -8.28-2.39z"/><path d="m275.67 254.85h-218.94a10.43 10.43 0 0 0 -10.44 10.43v1.93h239.81v-1.93a10.43 10.43 0 0 0 -10.43-10.43z"/><path d="m46.29 313a10.43 10.43 0 0 0 10.44 10.43h218.94a10.43 10.43 0 0 0 10.43-10.43v-41.1h-239.81z"/><path d="m268.66 328.64v12.67h15.28v-15.06a15.47 15.47 0 0 1 -8.27 2.39z"/></g><circle cx="324.85" cy="113.36" r="18.47" transform="matrix(.98372863 -.17966075 .17966075 .98372863 -61.37 -24)"/><path d="m409.81 88.32-2.26-2.2a6.7 6.7 0 0 0 -9.48.11l-28.8 32.77-23.62 18.76h-43.13l-23.63-18.76-28.8-32.74a6.7 6.7 0 0 0 -9.48-.11l-2.25 2.2a6.71 6.71 0 0 0 -.12 9.48l26.64 30.53 29.12 25.51 9.7 57.62a5.94 5.94 0 0 0 .29 1.1l-6.51 55a13.69 13.69 0 0 0 -.67 4.58l2.16 61.36a7.92 7.92 0 0 0 7.8 7.82h3.58a7.93 7.93 0 0 0 7.82-7.79l1.39-56.34a11.09 11.09 0 0 0 .56-2.11l5-30 5 30a12.8 12.8 0 0 0 .56 2.11l1.32 56.39a7.93 7.93 0 0 0 7.83 7.79h3.58a7.93 7.93 0 0 0 7.8-7.82l2.16-61.36a13.44 13.44 0 0 0 -.68-4.58l-6.63-56.13 10.14-60.26 27.09-22.9 26.63-30.55a6.72 6.72 0 0 0 -.11-9.48z" transform="translate(-46.29 -84.21)"/></g></svg>